<svg xmlns="http://www.w3.org/2000/svg" width="" height="30px" viewBox="0 0 1739.092 465.77"><defs><style>.a{fill:#fff;}</style></defs><g transform="translate(1925.412 -242.632)"><path class="a" d="M-1440.12,244.25c14.493-2.187,31.17-3.554,43.473,5.468,7.655,5.74,10.389,16.129,9.842,25.427.547,15.31-6.561,31.715-20.229,39.645-12.032,6.562-26.521,7.106-39.92,5.74-9.022-1.092-18.044-6.012-22.692-14.215-10.392-23.787,2.459-57.417,29.526-62.065Zm-433.63,17.225c.819-8.2,8.2-15.585,16.677-15.31,63.16,0,126.044.272,188.929,0,6.835-.547,14.218,2.459,17.5,8.474,4.647,8.2.547,17.225,0,25.7-1.912,11.481-1.367,26.794-14.762,31.167-45.934,1.367-91.868,0-137.8.547-4.374,28.98-8.475,57.688-12.851,86.4,0,1.094.275,3.557.275,4.647,33.629-.272,67.258,0,100.887-.272,9.3-.547,19.138,7.385,18.318,17.225-.819,10.117-3.007,19.959-4.373,30.076-1.1,6.834-6.563,13.123-13.672,14.49-37.458.82-75.463-.82-112.917.82-6.017,41.285-13.126,82.568-19.415,123.855-.818,8.2-7.382,15.311-15.584,15.582q-23.374.412-46.752,0c-10.116.275-18.319-10.938-15.586-20.506q25.024-161.578,51.131-322.893Zm277.78-14.766c14.219-1.092,28.708-.272,42.927-.544,8.75-.547,17.5,6.287,18.317,15.31,0,7.107-1.914,14.217-2.733,21.325-11.484,73.275-23.24,146.55-34.725,219.824-1.64,11.756-4.647,24.332-1.092,36.363,4.1,12.029,22.417,6.834,26.793,19.41,2.734,10.117-.275,20.779-1.095,31.17-.819,13.67-16.4,16.676-27.065,19.688-23.239,4.373-51.4,1.092-68.081-18.049-12.03-13.941-12.851-33.629-10.388-51.125q21.735-139.438,43.746-279.153c.821-6.836,6.288-13.124,13.4-14.219Zm542.72,14.766c.818-8.2,8.2-15.31,16.4-15.31h41.559c10.389-.275,18.867,10.936,16.405,20.777-9.569,60.7-19.411,121.4-28.98,182.09,14.49-2.186,30.9-4.92,41.012-16.676a254.285,254.285,0,0,0,41.284-64.523c3.553-9.024,5.468-22.147,17.225-23.788,15.585-.547,31.441-.274,47.026,0,10.664-.274,18.592,11.756,15.038,21.6-4.1,14.494-10.936,27.889-18.044,40.74-15.859,25.7-33.355,51.127-56.324,71.359,10.116,30.348,22.968,59.877,34.177,89.68,3.28,9.842,11.212,21.324,3.828,30.9-8.478,11.482-24.335,5.738-36.091,7.1-12.3-1.367-30.075,4.922-36.911-9.021-12.851-29.8-23.512-60.422-36.638-90.225-7.655.271-15.583.547-23.24-.273-.544,1.094-1.639,3.279-2.187,4.375-4.1,27.34-8.475,54.682-12.851,82.021-1.641,6.562-6.836,12.3-13.943,12.852-14.49.547-29.255.271-44.019.271-6.29,0-12.03-4.1-14.765-9.568s-1.095-11.756-.271-17.771q25.423-158.305,50.306-316.609Zm759.81,29.8A17.008,17.008,0,0,1-276.487,278.7c10.937.275,22.146-.272,33.354.275,9.024.272,16.132,9.3,15.037,18.044-1.64,15.585-5.469,31.17-6.561,46.752,10.662,0,21.6-.272,32.262,0,9.57,0,17.5,9.844,15.858,19.138-1.368,8.479-3.282,16.682-4.649,25.154A17.789,17.789,0,0,1-205.4,402.006c-13.125.82-25.974-.547-38.825.82-5.468,36.635-11.483,73.271-17.225,109.912-.822,8.475-1.367,18.043,3.554,25.426,7.383,9.023,20.231,5.74,30.623,6.836,8.2,2.459,13.4,11.484,12.028,19.688-1.367,9.293-1.64,18.59-3.826,27.611-3.281,10.115-15.038,12.031-24.062,14.49-24.88,6.564-53.588,6.564-75.732-7.928-20.505-13.945-23.788-41.012-21.6-63.979,5.74-44.293,14.766-88.311,19.686-132.877-7.655.272-16.952,1.367-22.692-5.469-6.562-6.834-3.281-16.951-2.188-25.429,1.642-9.022,1.367-20.778,11.211-25.7,7.927-3.009,16.952-.819,25.427-1.914,5.194-17.495,10.115-34.992,15.583-52.216ZM-447.917,379.86c17.225-17.225,38-31.442,61.79-38.549,10.389-4.649,23.787,4.1,23.515,15.584-1.914,15.038-5.469,29.8-7.93,44.564a17.4,17.4,0,0,1-14.766,14.492c-26.794,4.646-50.033,20.775-68.625,39.916-4.647,5.744-11.483,11.211-12.3,19.139-5.74,38.277-11.756,76.555-17.771,114.832-.819,8.2-7.931,16.133-16.4,15.586h-41.56c-9.568.547-18.043-9.021-16.95-18.592,12.03-75.736,24.062-151.2,35.817-226.932.547-7.654,6.016-15.036,13.943-15.857,10.117-.547,20.232-.274,30.623-.274,8.2,0,15.856,7.382,15.856,15.859,0,11.756-1.092,23.785-1.366,35.815,6.563-4.1,10.664-10.661,16.132-15.583ZM-1469.93,345.137c14.764-3.006,30.075-.545,44.839-1.367,8.477-1.092,17.5,4.375,18.865,12.852,1.1,7.654-1.095,15.037-1.915,22.42q-16.812,105.4-33.356,210.8c-.82,7.932-7.379,15.859-15.857,15.584-14.763,0-29.528.275-44.564-.271-9.3-1.1-16.133-11.756-13.671-20.781,11.757-73,22.968-145.727,34.724-218.729C-1480.318,357.715-1478.131,348.418-1469.93,345.137Zm884.76,3.557c-40.739-7.658-82.295-13.126-123.582-9.025-36.91,4.649-74.094,21.328-96.785,51.676-31.443,39.917-42.107,93.507-35,143.269,3.83,23.785,14.218,47.846,33.632,62.609,18.044,13.945,42.378,15.857,64.252,12.3,30.619-6.016,56.593-25.7,77.921-47.572,1.092,9.295-1.095,18.592-.547,27.615.547,8.473,8.2,16.4,16.677,15.855h27.89c8.2,0,15.038-7.652,15.585-15.584q17.634-111.141,35-221.735c1.638-9.3-5.741-18.319-15.039-19.411ZM-662,477.469c-10.938,20.506-26.25,39.1-43.475,54.953-9.841,8.2-22.42,16.68-35.814,13.947-13.125-2.734-19.414-16.4-22.42-28.162-6.835-30.621-.547-63.979,16.676-90.5a58.446,58.446,0,0,1,34.177-25.429c19.958-4.922,41.013-2.461,60.426,3.007l1.092,1.1c-2.46,23.785-7.109,47.3-10.662,71.086Zm-459.874-41.011c-.275-27.342-7.656-56.049-26.794-76.556-13.123-14.49-32.81-21.872-51.948-21.6-31.717-1.091-61.518,14.494-84.757,35.271-5.2,4.1-8.75,10.118-14.49,13.4,0-9.025.819-18.046.544-27.341.275-8.478-7.655-15.859-15.857-15.859h-27.889c-8.747,0-15.857,7.657-16.4,16.131q-25.837,164.047-51.947,328.094c-2.459,10.115,6.291,20.506,16.68,20.232,15.31-.273,30.9,1.094,45.932-1.1,12.031-3.281,11.756-17.225,13.671-27.34,4.373-24.061,7.383-48.121,10.116-72.455,53.862,10.389,116.473,3.283,156.664-37.457,32.808-35.814,48.118-85.3,46.479-133.421Zm-76.555,27.613c-1.639,25.154-10.663,50.582-28.16,68.9-22.692,21.6-57.145,18.592-85.032,11.213a18.682,18.682,0,0,1-1.64-3.281c4.374-23.787,6.562-47.848,12.031-71.361,15.311-25.152,33.9-50.582,60.422-64.524,9.843-4.647,23.24-3.554,30.349,5.469,12.03,15.037,13.124,35.269,12.03,53.586Z"/></g></svg>